#Comment line ignore any data following # character 
#Hierarchical Translation and Rotation (.htr) file 
[Header]	
#Header keywords are followed by a single value 
FileType HTR		#Single word string
DataType HTRS		#Translation followed by rotation and scale data
FileVersion 1		#integer
NumSegments 84		#integer
NumFrames 2		#integer
DataFrameRate 30		#integer, data frame rate in this file
EulerRotationOrder ZYX
CalibrationUnits mm
RotationUnits Degrees
GlobalAxisofGravity Y
BoneLengthAxis Y
ScaleFactor 1.00
[SegmentNames&Hierarchy]
#CHILD	PARENT
MASTER GLOBAL
root MASTER
chest root
L_mid_tent01 root
R_mid_tent01 root
spine01 root
Bip01_Neck chest
L_humerus chest
R_humerus chest
weapon_bone chest
Bip01_Head Bip01_Neck
eye_left_bone Bip01_Head
eye_right_bone Bip01_Head
L_forearm L_humerus
L_front_hand L_forearm
L_weapon_bone L_forearm
L_front_hand01_01 L_front_hand
L_front_hand02_01 L_front_hand
L_front_hand03_01 L_front_hand
L_front_hand01_02 L_front_hand01_01
L_front_hand02_02 L_front_hand02_01
L_front_hand03_02 L_front_hand03_01
R_forearm R_humerus
R_front_hand R_forearm
R_weapon_bone R_forearm
R_front_hand01_01 R_front_hand
R_front_hand02_01 R_front_hand
R_front_hand03_01 R_front_hand
R_front_hand01_02 R_front_hand01_01
R_front_hand02_02 R_front_hand02_01
R_front_hand03_02 R_front_hand03_01
null_rope01_connect L_mid_tent01
Rope1_Seg01 null_rope01_connect
Rope1_Seg02 Rope1_Seg01
Rope1_Seg03 Rope1_Seg02
Rope1_Seg04 Rope1_Seg03
Rope1_Seg05 Rope1_Seg04
Rope1_Seg06 Rope1_Seg05
Rope1_Seg07 Rope1_Seg06
Rope1_Seg09 Rope1_Seg07
L_mid_hand01 Rope1_Seg09
L_mid_hand02 Rope1_Seg09
L_mid_hand03 Rope1_Seg09
null_rope02_connect R_mid_tent01
Rope2_Seg01 null_rope02_connect
Rope2_Seg02 Rope2_Seg01
Rope2_Seg03 Rope2_Seg02
Rope2_Seg04 Rope2_Seg03
Rope2_Seg05 Rope2_Seg04
Rope2_Seg06 Rope2_Seg05
Rope2_Seg07 Rope2_Seg06
Rope2_Seg09 Rope2_Seg07
R_mid_hand01 Rope2_Seg09
R_mid_hand02 Rope2_Seg09
R_mid_hand03 Rope2_Seg09
spine02 spine01
spine03 spine02
pelvis spine03
null_rope03_connect pelvis
null_rope04_connect pelvis
Rope3_Seg01 null_rope03_connect
Rope3_Seg02 Rope3_Seg01
Rope3_Seg03 Rope3_Seg02
Rope3_Seg04 Rope3_Seg03
Rope3_Seg05 Rope3_Seg04
Rope3_Seg06 Rope3_Seg05
Rope3_Seg07 Rope3_Seg06
Rope3_Seg08 Rope3_Seg07
Rope3_Seg09 Rope3_Seg08
R_rear_hand01 Rope3_Seg09
R_rear_hand02 Rope3_Seg09
R_rear_hand03 Rope3_Seg09
Rope4_Seg01 null_rope04_connect
Rope4_Seg02 Rope4_Seg01
Rope4_Seg03 Rope4_Seg02
Rope4_Seg04 Rope4_Seg03
Rope4_Seg05 Rope4_Seg04
Rope4_Seg06 Rope4_Seg05
Rope4_Seg07 Rope4_Seg06
Rope4_Seg08 Rope4_Seg07
Rope4_Seg09 Rope4_Seg08
L_rear_hand01 Rope4_Seg09
L_rear_hand02 Rope4_Seg09
L_rear_hand03 Rope4_Seg09
[BasePosition]
#SegmentName Tx, Ty, Tz, Rx, Ry, Rz, BoneLength
MASTER 0.000000 0.000000 0.000000 -90.000000 0.000000 0.000000 10.000000 
root 0.000000 0.000000 0.000000 0.000000 0.000000 0.000000 10.000000 
chest 0.000000 0.000000 0.000000 0.000000 0.000000 0.000000 10.000000 
L_mid_tent01 0.000000 0.000000 0.000000 0.000000 0.000000 0.000000 10.000000 
R_mid_tent01 0.000000 0.000000 0.000000 0.000000 0.000000 0.000000 10.000000 
spine01 0.000000 0.000000 0.000000 0.000000 0.000000 0.000000 10.000000 
Bip01_Neck 0.000000 0.000000 0.000000 0.000000 0.000000 0.000000 10.000000 
L_humerus 0.000000 0.000000 0.000000 0.000000 0.000000 0.000000 10.000000 
R_humerus 0.000000 0.000000 0.000000 0.000000 0.000000 0.000000 10.000000 
weapon_bone 0.000000 0.000000 0.000000 0.000000 0.000000 0.000000 10.000000 
Bip01_Head 0.000000 0.000000 0.000000 0.000000 0.000000 0.000000 10.000000 
eye_left_bone 0.000000 0.000000 0.000000 0.000000 0.000000 0.000000 10.000000 
eye_right_bone 0.000000 0.000000 0.000000 0.000000 0.000000 0.000000 10.000000 
L_forearm 0.000000 0.000000 0.000000 0.000000 0.000000 0.000000 10.000000 
L_front_hand 0.000000 0.000000 0.000000 0.000000 0.000000 0.000000 10.000000 
L_weapon_bone 0.000000 0.000000 0.000000 0.000000 0.000000 0.000000 10.000000 
L_front_hand01_01 0.000000 0.000000 0.000000 0.000000 0.000000 0.000000 10.000000 
L_front_hand02_01 0.000000 0.000000 0.000000 0.000000 0.000000 0.000000 10.000000 
L_front_hand03_01 0.000000 0.000000 0.000000 0.000000 0.000000 0.000000 10.000000 
L_front_hand01_02 0.000000 0.000000 0.000000 0.000000 0.000000 0.000000 10.000000 
L_front_hand02_02 0.000000 0.000000 0.000000 0.000000 0.000000 0.000000 10.000000 
L_front_hand03_02 0.000000 0.000000 0.000000 0.000000 0.000000 0.000000 10.000000 
R_forearm 0.000000 0.000000 0.000000 0.000000 0.000000 0.000000 10.000000 
R_front_hand 0.000000 0.000000 0.000000 0.000000 0.000000 0.000000 10.000000 
R_weapon_bone 0.000000 0.000000 0.000000 0.000000 0.000000 0.000000 10.000000 
R_front_hand01_01 0.000000 0.000000 0.000000 0.000000 0.000000 0.000000 10.000000 
R_front_hand02_01 0.000000 0.000000 0.000000 0.000000 0.000000 0.000000 10.000000 
R_front_hand03_01 0.000000 0.000000 0.000000 0.000000 0.000000 0.000000 10.000000 
R_front_hand01_02 0.000000 0.000000 0.000000 0.000000 0.000000 0.000000 10.000000 
R_front_hand02_02 0.000000 0.000000 0.000000 0.000000 0.000000 0.000000 10.000000 
R_front_hand03_02 0.000000 0.000000 0.000000 0.000000 0.000000 0.000000 10.000000 
null_rope01_connect 0.000000 0.000000 0.000000 0.000000 0.000000 0.000000 10.000000 
Rope1_Seg01 0.000000 0.000000 0.000000 0.000000 0.000000 0.000000 10.000000 
Rope1_Seg02 0.000000 0.000000 0.000000 0.000000 0.000000 0.000000 10.000000 
Rope1_Seg03 0.000000 0.000000 0.000000 0.000000 0.000000 0.000000 10.000000 
Rope1_Seg04 0.000000 0.000000 0.000000 0.000000 0.000000 0.000000 10.000000 
Rope1_Seg05 0.000000 0.000000 0.000000 0.000000 0.000000 0.000000 10.000000 
Rope1_Seg06 0.000000 0.000000 0.000000 0.000000 0.000000 0.000000 10.000000 
Rope1_Seg07 0.000000 0.000000 0.000000 0.000000 0.000000 0.000000 10.000000 
Rope1_Seg09 0.000000 0.000000 0.000000 0.000000 0.000000 0.000000 10.000000 
L_mid_hand01 0.000000 0.000000 0.000000 0.000000 0.000000 0.000000 10.000000 
L_mid_hand02 0.000000 0.000000 0.000000 0.000000 0.000000 0.000000 10.000000 
L_mid_hand03 0.000000 0.000000 0.000000 0.000000 0.000000 0.000000 10.000000 
null_rope02_connect 0.000000 0.000000 0.000000 0.000000 0.000000 0.000000 10.000000 
Rope2_Seg01 0.000000 0.000000 0.000000 0.000000 0.000000 0.000000 10.000000 
Rope2_Seg02 0.000000 0.000000 0.000000 0.000000 0.000000 0.000000 10.000000 
Rope2_Seg03 0.000000 0.000000 0.000000 0.000000 0.000000 0.000000 10.000000 
Rope2_Seg04 0.000000 0.000000 0.000000 0.000000 0.000000 0.000000 10.000000 
Rope2_Seg05 0.000000 0.000000 0.000000 0.000000 0.000000 0.000000 10.000000 
Rope2_Seg06 0.000000 0.000000 0.000000 0.000000 0.000000 0.000000 10.000000 
Rope2_Seg07 0.000000 0.000000 0.000000 0.000000 0.000000 0.000000 10.000000 
Rope2_Seg09 0.000000 0.000000 0.000000 0.000000 0.000000 0.000000 10.000000 
R_mid_hand01 0.000000 0.000000 0.000000 0.000000 0.000000 0.000000 10.000000 
R_mid_hand02 0.000000 0.000000 0.000000 0.000000 0.000000 0.000000 10.000000 
R_mid_hand03 0.000000 0.000000 0.000000 0.000000 0.000000 0.000000 10.000000 
spine02 0.000000 0.000000 0.000000 0.000000 0.000000 0.000000 10.000000 
spine03 0.000000 0.000000 0.000000 0.000000 0.000000 0.000000 10.000000 
pelvis 0.000000 0.000000 0.000000 0.000000 0.000000 0.000000 10.000000 
null_rope03_connect 0.000000 0.000000 0.000000 0.000000 0.000000 0.000000 10.000000 
null_rope04_connect 0.000000 0.000000 0.000000 0.000000 0.000000 0.000000 10.000000 
Rope3_Seg01 0.000000 0.000000 0.000000 0.000000 0.000000 0.000000 10.000000 
Rope3_Seg02 0.000000 0.000000 0.000000 0.000000 0.000000 0.000000 10.000000 
Rope3_Seg03 0.000000 0.000000 0.000000 0.000000 0.000000 0.000000 10.000000 
Rope3_Seg04 0.000000 0.000000 0.000000 0.000000 0.000000 0.000000 10.000000 
Rope3_Seg05 0.000000 0.000000 0.000000 0.000000 0.000000 0.000000 10.000000 
Rope3_Seg06 0.000000 0.000000 0.000000 0.000000 0.000000 0.000000 10.000000 
Rope3_Seg07 0.000000 0.000000 0.000000 0.000000 0.000000 0.000000 10.000000 
Rope3_Seg08 0.000000 0.000000 0.000000 0.000000 0.000000 0.000000 10.000000 
Rope3_Seg09 0.000000 0.000000 0.000000 0.000000 0.000000 0.000000 10.000000 
R_rear_hand01 0.000000 0.000000 0.000000 0.000000 0.000000 0.000000 10.000000 
R_rear_hand02 0.000000 0.000000 0.000000 0.000000 0.000000 0.000000 10.000000 
R_rear_hand03 0.000000 0.000000 0.000000 0.000000 0.000000 0.000000 10.000000 
Rope4_Seg01 0.000000 0.000000 0.000000 0.000000 0.000000 0.000000 10.000000 
Rope4_Seg02 0.000000 0.000000 0.000000 0.000000 0.000000 0.000000 10.000000 
Rope4_Seg03 0.000000 0.000000 0.000000 0.000000 0.000000 0.000000 10.000000 
Rope4_Seg04 0.000000 0.000000 0.000000 0.000000 0.000000 0.000000 10.000000 
Rope4_Seg05 0.000000 0.000000 0.000000 0.000000 0.000000 0.000000 10.000000 
Rope4_Seg06 0.000000 0.000000 0.000000 0.000000 0.000000 0.000000 10.000000 
Rope4_Seg07 0.000000 0.000000 0.000000 0.000000 0.000000 0.000000 10.000000 
Rope4_Seg08 0.000000 0.000000 0.000000 0.000000 0.000000 0.000000 10.000000 
Rope4_Seg09 0.000000 0.000000 0.000000 0.000000 0.000000 0.000000 10.000000 
L_rear_hand01 0.000000 0.000000 0.000000 0.000000 0.000000 0.000000 10.000000 
L_rear_hand02 0.000000 0.000000 0.000000 0.000000 0.000000 0.000000 10.000000 
L_rear_hand03 0.000000 0.000000 0.000000 0.000000 0.000000 0.000000 10.000000 
#Beginning of Data. Separated by tabs
#Fr	Tx	Ty	Tz	Rx	Ry	Rz	SF
[MASTER]
64 -1064.802734 11697.814453 538.773987 0.001660 0.001660 0.001660 11758.527344
65 -937.080994 12156.358398 456.718536 0.001660 0.001660 0.001660 12200.974609
[root]
64 302.031311 -75.942680 1039.149902 -103.061066 -4.690130 -94.775116 1084.814575
65 295.972382 -66.819122 1073.411377 -98.616997 -5.497561 -98.471107 1115.471313
[chest]
64 -84.512650 -34.090519 0.000000 19.737206 1.088945 168.288589 91.129311
65 -84.512650 -34.090519 0.000000 22.213036 1.421969 169.733032 91.129311
[L_mid_tent01]
64 27.299629 22.179489 -249.918686 8.051509 20.880564 17.071880 252.381744
65 27.299639 22.179493 -249.918686 7.967703 18.665335 17.046995 252.381744
[R_mid_tent01]
64 23.228794 24.509907 226.238495 165.281189 -6.341475 79.909233 228.744751
65 23.228794 24.509907 226.238495 166.493011 -12.810729 79.841446 228.744751
[spine01]
64 -0.361383 -0.195265 0.000000 -0.000001 -0.000007 22.052340 0.410763
65 -0.361383 -0.195265 0.000000 -0.000001 -0.000007 22.052340 0.410763
[Bip01_Neck]
64 165.484543 71.581718 0.000119 176.643677 -1.657967 43.431911 180.302734
65 165.484543 71.581718 0.000119 176.643677 -1.657967 43.431911 180.302734
[L_humerus]
64 -13.983130 -135.272980 -120.471481 170.076157 23.409512 -97.536369 181.680161
65 -13.983130 -135.272980 -120.471481 169.336731 29.519703 -98.367973 181.680161
[R_humerus]
64 -13.983309 -135.273102 125.287651 -176.179413 -21.024982 -87.443153 184.909012
65 -13.983309 -135.273102 125.287651 -175.845688 -26.965513 -88.015083 184.909012
[weapon_bone]
64 235.964890 -300.705902 0.000000 0.000000 -89.951546 -128.212341 382.234833
65 235.964890 -300.705902 0.000000 0.000000 -89.951546 -128.212341 382.234833
[Bip01_Head]
64 213.438599 185.730789 11.584249 17.082245 0.430981 -46.429646 283.171600
65 213.439606 185.727814 11.622868 17.547174 0.731716 -46.162685 283.171997
[eye_left_bone]
64 -24.626970 125.451866 -64.772606 0.000000 -90.000000 -99.840431 143.318359
65 -24.626970 125.451866 -64.772606 0.000000 -90.000000 -99.840431 143.318359
[eye_right_bone]
64 -24.626970 125.451866 64.327362 0.000000 -89.965736 80.156380 143.117676
65 -24.626970 125.451866 64.327362 0.000000 -89.965736 80.156380 143.117676
[L_forearm]
64 322.776093 0.000000 -0.000119 0.000407 -0.002312 -109.991562 322.776093
65 322.776093 0.000000 -0.000119 0.000406 -0.002312 -109.941734 322.776093
[L_front_hand]
64 241.149185 -0.042021 -3.300071 -178.667953 -1.835447 -27.422350 241.171753
65 241.149185 -0.042021 -3.300071 -178.667953 -1.835447 -27.422350 241.171753
[L_weapon_bone]
64 156.183838 0.000000 0.000000 0.000014 0.000007 0.000001 156.183838
65 156.183838 0.000000 0.000000 0.000014 0.000007 0.000001 156.183838
[L_front_hand01_01]
64 86.095154 20.947098 -0.655860 -0.366594 -0.477154 75.385574 88.609184
65 86.095154 20.947098 -0.655860 -0.366594 -0.477154 75.385574 88.609184
[L_front_hand02_01]
64 86.935165 -11.437475 24.513514 154.399796 -59.883835 -61.369587 91.046425
65 86.935165 -11.437475 24.513514 154.399796 -59.883835 -61.369587 91.046425
[L_front_hand03_01]
64 86.637497 -14.123976 -20.424902 -153.913879 58.118130 -62.702892 90.126129
65 86.637497 -14.123976 -20.424902 -153.913849 58.118122 -62.702866 90.126129
[L_front_hand01_02]
64 71.020905 -0.000179 0.000030 0.000334 -0.002323 -106.379684 71.020905
65 71.020905 -0.000179 0.000030 0.000334 -0.002323 -106.379684 71.020905
[L_front_hand02_02]
64 71.020927 -0.000119 0.000060 0.000334 -0.002323 -106.379684 71.020927
65 71.020927 -0.000119 0.000060 0.000334 -0.002323 -106.379684 71.020927
[L_front_hand03_02]
64 71.020905 -0.000060 0.000060 0.000334 -0.002323 -106.379684 71.020905
65 71.020905 -0.000060 0.000060 0.000334 -0.002323 -106.379684 71.020905
[R_forearm]
64 322.776428 -0.000060 0.000030 0.201770 0.066182 -108.643944 322.776428
65 322.776428 -0.000060 0.000030 0.201798 0.066095 -108.594658 322.776428
[R_front_hand]
64 238.847015 -0.006795 2.210259 -2.635298 -10.645461 -26.312506 238.857239
65 238.847015 -0.006795 2.210259 -2.635298 -10.645461 -26.312506 238.857239
[R_weapon_bone]
64 155.664093 0.002503 -0.000030 0.003487 0.001180 -90.988930 155.664078
65 155.664093 0.002503 -0.000030 0.003487 0.001180 -90.988930 155.664078
[R_front_hand01_01]
64 87.624611 14.231146 22.918642 -154.633484 -59.950619 61.746037 91.683487
65 87.624611 14.231146 22.918642 -154.633499 -59.950619 61.746044 91.683487
[R_front_hand02_01]
64 89.356956 14.367283 -19.491137 154.602661 58.302849 63.744389 92.579636
65 89.356956 14.367283 -19.491137 154.602661 58.302849 63.744389 92.579636
[R_front_hand03_01]
64 87.286232 -22.307278 -0.143439 0.162155 -0.423168 -75.767921 90.091743
65 87.286232 -22.307278 -0.143439 0.162155 -0.423168 -75.767921 90.091743
[R_front_hand01_02]
64 71.020905 0.000060 0.000119 0.002323 -0.000334 106.381714 71.020905
65 71.020905 0.000060 0.000119 0.002323 -0.000334 106.381714 71.020905
[R_front_hand02_02]
64 71.020844 -0.000030 -0.000119 0.002323 -0.000334 106.381714 71.020836
65 71.020844 -0.000030 -0.000119 0.002323 -0.000334 106.381714 71.020836
[R_front_hand03_02]
64 71.020905 0.000000 0.000030 0.002323 -0.000334 106.381714 71.020905
65 71.020905 0.000000 0.000030 0.002323 -0.000334 106.381714 71.020905
[null_rope01_connect]
64 328.732483 0.000000 -0.000238 -107.626396 -60.719261 -171.075638 328.732483
65 328.732483 0.000000 -0.000238 -97.978607 -60.648018 178.964157 328.732483
[Rope1_Seg01]
64 0.000038 -0.000936 0.000153 102.967636 7.475185 -70.829224 0.000949
65 0.000038 -0.000950 0.000153 102.055679 4.469712 -75.949707 0.000963
[Rope1_Seg02]
64 139.999863 -0.000179 0.000000 0.022312 -3.201184 3.865869 139.999863
65 139.999863 -0.000179 0.000000 -0.179279 -3.352939 3.644168 139.999863
[Rope1_Seg03]
64 139.999924 0.000060 -0.000060 -0.752831 -6.764127 7.130560 139.999924
65 139.999924 0.000060 -0.000060 -1.627760 -7.231102 6.689794 139.999924
[Rope1_Seg04]
64 139.999924 -0.000060 -0.000119 0.307123 -7.698133 9.633605 139.999924
65 139.999924 -0.000060 -0.000119 0.223062 -5.981748 7.245304 139.999924
[Rope1_Seg05]
64 139.999832 0.000119 -0.000060 3.657663 11.482856 -7.279904 139.999832
65 139.999832 0.000119 -0.000060 5.036915 9.952380 -5.142121 139.999832
[Rope1_Seg06]
64 139.999954 0.000119 -0.000060 0.698340 2.609580 -1.778308 139.999954
65 139.999954 0.000119 -0.000060 0.935118 2.113299 -1.153499 139.999954
[Rope1_Seg07]
64 139.999985 0.000060 0.000000 0.349595 1.215770 -0.771162 139.999985
65 139.999985 0.000060 0.000000 0.471392 1.052464 -0.552907 139.999985
[Rope1_Seg09]
64 121.602913 0.000119 -0.000089 -89.793175 -1.359789 0.847147 121.602913
65 121.602913 0.000119 -0.000089 -89.793175 -1.359789 0.847147 121.602913
[L_mid_hand01]
64 103.859421 1.038730 8.195221 130.544373 -67.584534 -38.866943 104.187431
65 103.859421 1.038730 8.195221 130.544373 -67.584534 -38.866943 104.187431
[L_mid_hand02]
64 105.572853 -4.139662 -10.864139 -168.923172 43.409309 -73.498886 106.211075
65 105.572853 -4.139662 -10.864139 -168.923172 43.409309 -73.498886 106.211075
[L_mid_hand03]
64 104.641464 17.579376 -3.913581 -6.012627 17.808178 74.893677 106.179977
65 104.641464 17.579376 -3.913581 -6.012627 17.808174 74.893669 106.179977
[null_rope02_connect]
64 328.732849 0.000179 -0.000119 -44.280956 75.477524 122.349701 328.732849
65 328.732849 0.000179 -0.000119 -90.545212 82.851646 73.448166 328.732849
[Rope2_Seg01]
64 0.000066 -0.000899 0.000000 -81.033394 -36.765118 -83.515457 0.000901
65 0.000066 -0.000915 0.000000 -73.786797 -38.467190 -95.058395 0.000917
[Rope2_Seg02]
64 139.999741 -0.000060 -0.000119 2.036268 1.538322 1.216290 139.999756
65 139.999741 -0.000060 -0.000119 1.495567 1.265221 1.348785 139.999756
[Rope2_Seg03]
64 140.000107 0.000030 0.000000 2.467067 2.027748 1.490079 140.000107
65 140.000107 0.000030 0.000000 1.851475 1.661448 1.680809 140.000107
[Rope2_Seg04]
64 139.999802 0.000000 -0.000060 3.051232 2.797118 1.877667 139.999802
65 139.999802 0.000000 -0.000060 2.360850 2.292268 2.176536 139.999802
[Rope2_Seg05]
64 139.999985 -0.000060 0.000119 4.167457 4.453842 2.704759 139.999985
65 139.999985 -0.000060 0.000119 3.378301 3.658218 3.258385 139.999985
[Rope2_Seg06]
64 139.999893 -0.000030 -0.000119 8.219693 11.282139 6.098226 139.999893
65 139.999893 -0.000030 -0.000119 7.291646 9.230762 7.640498 139.999893
[Rope2_Seg07]
64 139.999893 0.000060 -0.000060 3.137367 7.530331 2.295640 139.999893
65 139.999893 0.000060 -0.000060 3.031689 6.245508 3.398002 139.999893
[Rope2_Seg09]
64 121.338966 0.000089 -0.000060 33.793236 -1.359788 -0.847141 121.338966
65 121.338966 0.000089 -0.000060 33.793236 -1.359788 -0.847141 121.338966
[R_mid_hand01]
64 104.680779 11.144459 -10.335981 -16.212063 45.237247 70.462852 105.778534
65 104.680779 11.144459 -10.335981 -16.212063 45.237247 70.462852 105.778534
[R_mid_hand02]
64 104.070427 2.443552 8.231699 49.067368 -67.749771 39.286453 104.424065
65 104.070427 2.443552 8.231699 49.067368 -67.749771 39.286453 104.424065
[R_mid_hand03]
64 106.028137 -11.221827 -5.996406 -177.101105 15.551026 -76.585571 106.788818
65 106.028137 -11.221827 -5.996406 -177.101105 15.551026 -76.585571 106.788818
[spine02]
64 129.756927 0.001550 0.000119 0.416068 -4.038871 -13.736012 129.756927
65 129.756927 0.001550 0.000119 0.411078 -4.039421 -13.664175 129.756927
[spine03]
64 78.613464 0.081750 -4.898873 1.929791 3.813456 16.993641 78.765999
65 78.613457 0.081752 -4.898871 1.926621 3.814901 16.949886 78.765991
[pelvis]
64 169.435242 0.051022 0.000000 0.027994 -0.189280 -12.869374 169.435257
65 169.435242 0.051022 0.000000 0.028528 -0.189200 -13.192935 169.435257
[null_rope03_connect]
64 -1.257226 -2.466202 137.391083 -153.784409 -76.788551 -124.431198 137.418976
65 -1.257226 -2.466202 137.391083 -128.629074 -78.102791 -148.535339 137.418976
[null_rope04_connect]
64 -1.259640 -2.480268 -137.844437 -153.784409 -76.788551 -124.431198 137.872513
65 -1.259640 -2.480268 -137.844437 -128.629074 -78.102791 -148.535339 137.872513
[Rope3_Seg01]
64 -0.000031 0.000000 -0.000116 32.021770 -27.221399 -109.474121 0.000120
65 -0.000031 0.000000 -0.000118 32.524311 -24.395750 -115.875626 0.000122
[Rope3_Seg02]
64 139.999924 -0.000119 0.000060 -3.009516 8.315340 2.729638 139.999924
65 139.999924 -0.000119 0.000060 -1.228149 6.354212 5.627417 139.999924
[Rope3_Seg03]
64 139.999924 -0.000119 0.000119 -1.710520 6.794724 2.714775 139.999924
65 139.999924 -0.000119 0.000119 -0.623336 5.303144 5.014534 139.999924
[Rope3_Seg04]
64 139.999924 0.000119 0.000000 -1.077550 6.527232 3.235004 139.999924
65 139.999924 0.000119 0.000000 -0.287136 5.002218 5.297807 139.999924
[Rope3_Seg05]
64 139.999924 -0.000238 0.000060 -0.319666 3.007382 1.141074 139.999924
65 139.999924 -0.000238 0.000060 -0.089901 2.501577 2.151680 139.999924
[Rope3_Seg06]
64 139.999893 -0.000119 -0.000060 0.211168 0.394049 -0.922456 139.999893
65 139.999893 -0.000119 -0.000060 0.135864 0.778883 -0.630493 139.999893
[Rope3_Seg07]
64 139.999771 0.000060 -0.000119 0.307182 -0.245895 -1.764652 139.999771
65 139.999771 0.000060 -0.000119 0.127051 0.769604 -1.214196 139.999771
[Rope3_Seg08]
64 139.999985 -0.000060 0.000000 0.213413 0.794561 -0.847527 139.999985
65 139.999985 -0.000060 0.000000 0.181963 1.352213 -0.228673 139.999985
[Rope3_Seg09]
64 90.185997 -0.000179 -0.000060 89.793228 -1.359877 -0.847183 90.185997
65 90.185997 -0.000179 -0.000060 89.793228 -1.359877 -0.847183 90.185997
[R_rear_hand01]
64 103.366196 -6.073594 -10.757982 -177.714203 24.565960 -73.910950 104.101845
65 103.366196 -6.073594 -10.757982 -177.714203 24.565960 -73.910950 104.101845
[R_rear_hand02]
64 100.509819 12.039542 -7.992327 -12.874829 36.868488 72.167213 101.543350
65 100.509819 12.039542 -7.992327 -12.874829 36.868488 72.167213 101.543350
[R_rear_hand03]
64 101.539970 5.215704 5.435467 71.484581 -71.816628 21.513813 101.819031
65 101.539970 5.215704 5.435467 71.484581 -71.816628 21.513813 101.819031
[Rope4_Seg01]
64 -0.000005 -0.000936 -0.000153 -98.606102 -0.292212 -96.949951 0.000948
65 -0.000005 -0.000950 -0.000153 -99.469582 -7.959711 -96.419579 0.000962
[Rope4_Seg02]
64 139.999985 0.000060 0.000119 -0.022691 -3.120957 -2.738950 139.999985
65 139.999985 0.000060 0.000119 -0.119456 -0.831169 -1.713768 139.999985
[Rope4_Seg03]
64 139.999924 0.000000 -0.000238 0.189807 -3.706499 -1.226799 139.999924
65 139.999924 0.000000 -0.000238 0.234239 -2.599583 -0.221352 139.999924
[Rope4_Seg04]
64 139.999985 0.000000 0.000119 -0.476687 -2.383991 -3.649680 139.999985
65 139.999985 0.000000 0.000119 -0.808885 0.993634 -3.873850 139.999985
[Rope4_Seg05]
64 139.999802 -0.000060 -0.000119 -1.719668 1.290166 -5.540143 139.999802
65 139.999802 -0.000060 -0.000119 -1.802233 5.556851 -6.303746 139.999802
[Rope4_Seg06]
64 139.999924 0.000000 0.000060 -0.666108 0.477675 -2.360420 139.999924
65 139.999924 0.000000 0.000060 -0.443193 2.069963 -2.440217 139.999924
[Rope4_Seg07]
64 139.999802 0.000000 0.000000 -0.322248 0.195523 -1.413388 139.999802
65 139.999802 0.000000 0.000000 -0.168647 1.275514 -1.523624 139.999802
[Rope4_Seg08]
64 139.999924 0.000000 0.000119 -1.735351 0.127044 -0.865861 139.999924
65 139.999924 0.000000 0.000119 -1.626998 0.779866 -0.929433 139.999924
[Rope4_Seg09]
64 90.185791 0.000060 0.000060 -135.617828 2.228885 0.850567 90.185791
65 90.185791 0.000060 0.000060 -135.617828 2.228885 0.850567 90.185791
[L_rear_hand01]
64 101.696655 -8.392275 -7.654577 -12.874829 -36.868488 107.832764 102.329041
65 101.696655 -8.392275 -7.654577 -12.874829 -36.868488 107.832764 102.329041
[L_rear_hand02]
64 102.726799 -1.568258 5.773216 71.484581 71.816628 158.486160 102.900848
65 102.726799 -1.568258 5.773216 71.484581 71.816628 158.486160 102.900848
[L_rear_hand03]
64 104.552910 9.721220 -10.420293 -177.714203 -24.565960 -106.089035 105.519653
65 104.552910 9.721220 -10.420293 -177.714203 -24.565960 -106.089035 105.519653
